<svg xmlns="http://www.w3.org/2000/svg" viewBox="0 0 128 128">
  <defs>
    <linearGradient id="frame" x1="8" y1="6" x2="120" y2="122" gradientUnits="userSpaceOnUse">
      <stop stop-color="#FF3CAC"/>
      <stop offset="0.48" stop-color="#D946EF"/>
      <stop offset="1" stop-color="#00E5FF"/>
    </linearGradient>
    <linearGradient id="sun" x1="64" y1="15" x2="64" y2="78" gradientUnits="userSpaceOnUse">
      <stop stop-color="#FFCF4A"/>
      <stop offset="0.55" stop-color="#FF8A3D"/>
      <stop offset="1" stop-color="#FF3CAC"/>
    </linearGradient>
    <linearGradient id="piece" x1="42" y1="31" x2="86" y2="112" gradientUnits="userSpaceOnUse">
      <stop stop-color="#FFFFFF"/>
      <stop offset="0.62" stop-color="#FFD6F2"/>
      <stop offset="1" stop-color="#79F1FF"/>
    </linearGradient>
    <clipPath id="sun-clip">
      <circle cx="64" cy="48" r="34"/>
    </clipPath>
  </defs>
  <rect width="128" height="128" rx="30" fill="#050617"/>
  <rect x="5" y="5" width="118" height="118" rx="26" fill="url(#frame)"/>
  <rect x="9" y="9" width="110" height="110" rx="22" fill="#090821"/>
  <g clip-path="url(#sun-clip)">
    <circle cx="64" cy="48" r="34" fill="url(#sun)"/>
    <path d="M26 44h76M26 53h76M26 63h76M26 74h76" stroke="#090821" stroke-width="4"/>
  </g>
  <path d="M17 91h94M27 81h74M39 71h50" stroke="#00E5FF" stroke-opacity="0.32" stroke-width="1.5"/>
  <path d="M64 72 19 112M64 72l45 40M64 72 43 112M64 72l21 40" stroke="#FF3CAC" stroke-opacity="0.28" stroke-width="1.5"/>
  <g fill="url(#piece)" stroke="#090821" stroke-width="3" stroke-linejoin="round" paint-order="stroke fill">
    <path d="M34 109h60v-8c0-8-6-14-14-14H48c-8 0-14 6-14 14v8Z"/>
    <path d="M47 84h34c-6-12-6-23 5-36 4-5 5-11 3-17-3-9-13-15-25-15-11 0-20 7-23 16-1 6 1 12 5 17 10 11 9 23 1 35Z"/>
    <circle cx="64" cy="29" r="12"/>
  </g>
  <path d="M42 61h44" stroke="#4B155F" stroke-width="7" stroke-linecap="round"/>
  <path d="M32 111h64" stroke="#FFCF4A" stroke-width="4" stroke-linecap="round"/>
</svg>
